<svg xmlns="http://www.w3.org/2000/svg" xmlns:xlink="http://www.w3.org/1999/xlink" width="200" zoomAndPan="magnify" viewBox="0 0 150 149.999998" height="200" preserveAspectRatio="xMidYMid meet" version="1.0"><defs><clipPath id="id1"><path d="M 24.261719 90.027344 L 135.261719 90.027344 L 135.261719 140.503906 L 24.261719 140.503906 Z M 24.261719 90.027344 " clip-rule="nonzero"/></clipPath><clipPath id="id2"><path d="M 119 9.183594 L 131 9.183594 L 131 42 L 119 42 Z M 119 9.183594 " clip-rule="nonzero"/></clipPath></defs><rect x="-15" width="180" fill="rgb(100%, 100%, 100%)" y="-15" height="179.999997" fill-opacity="1"/><rect x="-15" width="180" fill="rgb(100%, 100%, 100%)" y="-15" height="179.999997" fill-opacity="1"/><rect x="-15" width="180" fill="rgb(100%, 100%, 100%)" y="-15" height="179.999997" fill-opacity="1"/><rect x="-15" width="180" fill="rgb(100%, 100%, 100%)" y="-15" height="179.999997" fill-opacity="1"/><g clip-path="url(#id1)"><path fill="rgb(0%, 0%, 0%)" d="M 36.15625 97.84375 L 28.769531 97.84375 L 28.769531 100.929688 L 36.15625 100.929688 Z M 123.152344 97.84375 L 123.328125 100.976562 L 130.746094 100.976562 L 130.746094 97.84375 Z M 118.597656 94.96875 L 40.710938 94.96875 C 40.710938 102.960938 40.550781 110.859375 40.710938 118.734375 C 41.105469 128.253906 48.851562 135.816406 58.371094 135.96875 C 72.582031 136.085938 86.84375 136.085938 101.148438 135.96875 C 110.03125 135.898438 117.9375 128.917969 118.46875 120.066406 C 119.015625 111.796875 118.691406 103.480469 118.734375 95.1875 C 118.714844 95.109375 118.667969 95.027344 118.621094 94.96875 Z M 24.261719 95.953125 C 25.015625 94.097656 26.929688 92.996094 28.910156 93.285156 C 31.289062 93.390625 33.664062 93.285156 36.132812 93.285156 L 36.351562 90.480469 L 123.082031 90.480469 L 123.292969 93.285156 C 125.632812 93.285156 127.964844 93.402344 130.25 93.285156 C 132.914062 93.113281 134.621094 94.085938 135.40625 96.640625 L 135.40625 102.253906 C 134.480469 104.757812 132.648438 105.605469 130.074219 105.441406 C 127.835938 105.3125 125.578125 105.441406 123.1875 105.441406 C 123.1875 109.710938 123.1875 113.734375 123.1875 117.757812 C 123.246094 127.929688 116.488281 136.875 106.679688 139.574219 C 105.347656 139.945312 104.09375 140.191406 102.808594 140.503906 L 56.527344 140.503906 C 56.214844 140.363281 55.898438 140.25 55.574219 140.167969 C 44.433594 138.484375 36.203125 128.871094 36.25 117.609375 C 36.25 113.59375 36.25 109.605469 36.25 105.417969 C 33.78125 105.417969 31.507812 105.324219 29.246094 105.417969 C 27.242188 105.695312 25.269531 104.710938 24.273438 102.9375 L 24.273438 95.953125 L 24.261719 95.953125 " fill-opacity="1" fill-rule="nonzero"/></g><path fill="rgb(0%, 0%, 0%)" d="M 118.480469 75.183594 L 118.726562 74.753906 C 117.84375 73.953125 116.917969 73.199219 115.953125 72.515625 C 111.292969 69.671875 105.972656 68.105469 100.511719 67.980469 C 95.617188 67.792969 90.714844 67.851562 85.855469 67.769531 C 83.886719 67.804688 82.242188 66.261719 82.171875 64.292969 C 82.171875 63.699219 82.171875 63.121094 82.171875 62.539062 C 82.171875 58.828125 82.738281 58.074219 86.34375 57.402344 C 86.53125 57.332031 86.703125 57.238281 86.867188 57.136719 L 86.507812 55.5 L 70.832031 56.84375 L 71.0625 58.679688 C 71.816406 58.679688 72.398438 58.679688 72.976562 58.679688 C 74.625 58.65625 76.050781 59.816406 76.375 61.425781 C 76.617188 62.5625 76.78125 63.722656 76.847656 64.894531 C 77.035156 66.796875 75.691406 68.511719 73.789062 68.769531 C 70.078125 69.535156 66.378906 70.378906 62.636719 70.972656 C 56.179688 71.773438 50.089844 74.441406 45.117188 78.648438 C 44.226562 79.519531 43.378906 80.449219 42.589844 81.421875 L 42.867188 81.851562 Z M 124.082031 79.101562 L 38.09375 86.628906 C 37.28125 84.449219 37.433594 82.023438 38.519531 79.960938 C 40.109375 77.015625 42.476562 74.554688 45.351562 72.851562 C 50.125 69.695312 55.527344 67.632812 61.1875 66.808594 C 64.527344 66.285156 67.851562 65.472656 71.121094 64.742188 C 71.632812 64.5 72.097656 64.164062 72.457031 63.734375 L 72.128906 63.257812 L 70.796875 63.257812 C 70.496094 63.28125 70.207031 63.28125 69.917969 63.257812 C 67.425781 62.875 66.367188 60.789062 66.4375 56.324219 C 66.402344 54.339844 67.933594 52.691406 69.90625 52.589844 C 75.539062 52.054688 81.171875 51.546875 86.832031 51.140625 C 89.335938 50.941406 90.679688 52.230469 90.980469 54.804688 C 91.074219 55.617188 91.191406 56.429688 91.25 57.238281 C 91.410156 60.09375 90.449219 61.242188 87.632812 61.855469 C 87.132812 62.085938 86.679688 62.402344 86.308594 62.796875 L 86.507812 63.675781 L 99.953125 63.675781 C 106.109375 63.640625 112.164062 65.253906 117.496094 68.339844 C 118.898438 69.175781 120.207031 70.171875 121.378906 71.308594 C 123.582031 73.246094 124.613281 76.203125 124.082031 79.101562 " fill-opacity="1" fill-rule="nonzero"/><path fill="rgb(0%, 0% ,0%)" d="M 121.679688 31.550781 C 120.960938 33.949219 120.207031 36.257812 119.59375 38.613281 C 117.589844 45.734375 119.210938 53.378906 123.953125 59.050781 C 126.226562 61.925781 128.71875 64.652344 131.003906 67.527344 C 132.046875 68.847656 132.9375 70.277344 133.65625 71.796875 C 135.453125 75.613281 134.433594 79.414062 130.78125 81.480469 C 128.195312 82.734375 125.519531 83.800781 122.792969 84.679688 C 122.722656 84.449219 122.691406 84.21875 122.679688 83.984375 C 123.070312 83.742188 123.476562 83.519531 123.859375 83.277344 C 125.796875 82.164062 127.652344 80.933594 129.414062 79.578125 C 131.382812 78.242188 131.894531 75.578125 130.5625 73.605469 C 130.433594 73.40625 130.285156 73.222656 130.121094 73.046875 C 128.507812 70.996094 126.78125 69.035156 124.949219 67.179688 C 121.03125 63.027344 117.496094 58.667969 115.953125 52.996094 C 114.15625 45.339844 116.300781 37.289062 121.679688 31.550781 " fill-opacity="1" fill-rule="nonzero"/><g clip-path="url(#id2)"><path fill="rgb(0%, 0%, 0%)" d="M 123.234375 9.859375 C 122.921875 10.824219 122.746094 11.367188 122.574219 11.914062 C 121.21875 15.625 122.0625 19.777344 124.753906 22.652344 C 126.003906 23.988281 127.28125 25.414062 128.382812 26.921875 C 131.292969 30.425781 130.910156 35.609375 127.511719 38.648438 C 126.410156 39.773438 125.113281 40.699219 123.699219 41.398438 C 124.453125 40.292969 125.25 39.214844 125.960938 38.078125 C 128.53125 33.960938 128.277344 31.304688 125.148438 27.628906 C 123.6875 26.039062 122.363281 24.335938 121.21875 22.515625 C 118.816406 18.339844 119.675781 13.074219 123.234375 9.859375 " fill-opacity="1" fill-rule="nonzero"/></g><path fill="rgb(0%, 0%, 0%)" d="M 48.144531 109.152344 C 47.992188 112.296875 48.015625 115.453125 48.203125 118.605469 C 48.699219 122.617188 50.960938 126.203125 54.382812 128.371094 C 55.425781 128.871094 55.863281 130.132812 55.355469 131.191406 C 55.296875 131.316406 55.214844 131.433594 55.136719 131.539062 C 54.519531 132.546875 53.199219 132.859375 52.203125 132.246094 C 52.097656 132.175781 52.003906 132.105469 51.910156 132.023438 C 51.65625 131.875 51.425781 131.699219 51.191406 131.515625 C 46.429688 128.046875 43.597656 122.515625 43.585938 116.609375 C 43.460938 111.367188 43.585938 106.089844 43.585938 100.835938 C 43.585938 99.097656 44.480469 98.066406 45.835938 98.078125 C 47.191406 98.089844 47.855469 99.097656 47.921875 100.90625 C 47.921875 103.65625 47.921875 106.40625 47.921875 109.152344 L 48.144531 109.152344 " fill-opacity="1" fill-rule="nonzero"/></svg>