<svg xmlns="http://www.w3.org/2000/svg" xmlns:xlink="http://www.w3.org/1999/xlink" width="50" zoomAndPan="magnify" viewBox="0 0 37.5 37.499999" height="50" preserveAspectRatio="xMidYMid meet" version="1.0"><defs><g><g id="id1"/></g><clipPath id="id2"><path d="M 10.980469 24.40625 L 37.007812 24.40625 L 37.007812 36.453125 L 10.980469 36.453125 Z M 10.980469 24.40625 " clip-rule="nonzero"/></clipPath><clipPath id="id3"><path d="M 32.035156 10.234375 L 37.007812 10.234375 L 37.007812 23.699219 L 32.035156 23.699219 Z M 32.035156 10.234375 " clip-rule="nonzero"/></clipPath><clipPath id="id4"><path d="M 33 5.113281 L 37 5.113281 L 37 13 L 33 13 Z M 33 5.113281 " clip-rule="nonzero"/></clipPath></defs><g clip-path="url(#id2)"><path fill="rgb(100%, 100%, 100%)" d="M 13.792969 26.273438 L 12.046875 26.273438 L 12.046875 27.007812 L 13.792969 27.007812 Z M 34.367188 26.273438 L 34.40625 27.019531 L 36.164062 27.019531 L 36.164062 26.273438 Z M 33.289062 25.585938 L 14.871094 25.585938 C 14.871094 27.492188 14.832031 29.378906 14.871094 31.257812 C 14.964844 33.53125 16.796875 35.335938 19.046875 35.371094 C 22.40625 35.398438 25.78125 35.398438 29.164062 35.371094 C 31.261719 35.355469 33.132812 33.6875 33.257812 31.574219 C 33.386719 29.601562 33.3125 27.617188 33.320312 25.636719 C 33.316406 25.617188 33.304688 25.597656 33.292969 25.585938 Z M 10.980469 25.820312 C 11.160156 25.378906 11.609375 25.113281 12.078125 25.183594 C 12.640625 25.210938 13.203125 25.183594 13.789062 25.183594 L 13.839844 24.515625 L 34.351562 24.515625 L 34.398438 25.183594 C 34.953125 25.183594 35.503906 25.210938 36.042969 25.183594 C 36.675781 25.144531 37.078125 25.375 37.265625 25.984375 L 37.265625 27.324219 C 37.046875 27.921875 36.613281 28.125 36.003906 28.085938 C 35.472656 28.054688 34.941406 28.085938 34.375 28.085938 C 34.375 29.105469 34.375 30.0625 34.375 31.023438 C 34.386719 33.453125 32.789062 35.585938 30.472656 36.230469 C 30.15625 36.320312 29.859375 36.378906 29.554688 36.453125 L 18.609375 36.453125 C 18.535156 36.417969 18.460938 36.390625 18.386719 36.371094 C 15.75 35.972656 13.804688 33.675781 13.816406 30.988281 C 13.816406 30.03125 13.816406 29.078125 13.816406 28.078125 C 13.230469 28.078125 12.695312 28.058594 12.160156 28.078125 C 11.683594 28.144531 11.21875 27.910156 10.984375 27.488281 L 10.984375 25.820312 L 10.980469 25.820312 " fill-opacity="1" fill-rule="nonzero"/></g><path fill="rgb(100%, 100%, 100%)" d="M 33.261719 20.863281 L 33.320312 20.761719 C 33.109375 20.570312 32.890625 20.390625 32.664062 20.226562 C 31.5625 19.546875 30.304688 19.175781 29.011719 19.144531 C 27.855469 19.101562 26.695312 19.113281 25.546875 19.09375 C 25.082031 19.101562 24.691406 18.734375 24.675781 18.265625 C 24.675781 18.125 24.675781 17.984375 24.675781 17.847656 C 24.675781 16.960938 24.808594 16.78125 25.660156 16.621094 C 25.707031 16.605469 25.746094 16.582031 25.785156 16.554688 L 25.699219 16.167969 L 21.992188 16.488281 L 22.046875 16.925781 C 22.226562 16.925781 22.363281 16.925781 22.5 16.925781 C 22.890625 16.917969 23.226562 17.195312 23.304688 17.582031 C 23.363281 17.851562 23.398438 18.128906 23.417969 18.410156 C 23.460938 18.863281 23.140625 19.273438 22.691406 19.332031 C 21.816406 19.515625 20.941406 19.71875 20.054688 19.859375 C 18.527344 20.050781 17.089844 20.6875 15.914062 21.691406 C 15.703125 21.898438 15.5 22.121094 15.316406 22.351562 L 15.378906 22.457031 Z M 34.585938 21.800781 L 14.25 23.59375 C 14.058594 23.074219 14.09375 22.496094 14.351562 22.003906 C 14.726562 21.300781 15.289062 20.714844 15.96875 20.308594 C 17.097656 19.554688 18.375 19.0625 19.710938 18.863281 C 20.503906 18.742188 21.289062 18.546875 22.0625 18.371094 C 22.183594 18.3125 22.292969 18.234375 22.378906 18.132812 L 22.300781 18.019531 L 21.984375 18.019531 C 21.914062 18.023438 21.84375 18.023438 21.777344 18.019531 C 21.1875 17.925781 20.9375 17.429688 20.953125 16.363281 C 20.945312 15.890625 21.308594 15.496094 21.773438 15.472656 C 23.105469 15.34375 24.4375 15.222656 25.777344 15.125 C 26.371094 15.078125 26.6875 15.386719 26.757812 16 C 26.78125 16.195312 26.808594 16.386719 26.820312 16.582031 C 26.859375 17.261719 26.632812 17.535156 25.964844 17.683594 C 25.847656 17.738281 25.742188 17.8125 25.652344 17.90625 L 25.699219 18.117188 L 28.878906 18.117188 C 30.335938 18.109375 31.765625 18.496094 33.027344 19.230469 C 33.359375 19.429688 33.671875 19.667969 33.945312 19.9375 C 34.46875 20.402344 34.710938 21.105469 34.585938 21.800781 " fill-opacity="1" fill-rule="nonzero"/><g clip-path="url(#id3)"><path fill="rgb(100%, 100%, 100%)" d="M 34.019531 10.449219 C 33.847656 11.023438 33.671875 11.574219 33.523438 12.136719 C 33.050781 13.835938 33.433594 15.660156 34.554688 17.011719 C 35.09375 17.699219 35.683594 18.351562 36.222656 19.035156 C 36.46875 19.351562 36.679688 19.691406 36.851562 20.054688 C 37.277344 20.964844 37.035156 21.875 36.171875 22.367188 C 35.558594 22.664062 34.925781 22.921875 34.28125 23.128906 C 34.265625 23.074219 34.257812 23.019531 34.253906 22.964844 C 34.347656 22.90625 34.445312 22.855469 34.535156 22.796875 C 34.992188 22.53125 35.429688 22.238281 35.847656 21.914062 C 36.3125 21.59375 36.433594 20.957031 36.117188 20.488281 C 36.089844 20.441406 36.054688 20.394531 36.015625 20.355469 C 35.632812 19.863281 35.226562 19.398438 34.792969 18.953125 C 33.863281 17.960938 33.027344 16.921875 32.664062 15.570312 C 32.238281 13.742188 32.746094 11.820312 34.019531 10.449219 " fill-opacity="1" fill-rule="nonzero"/></g><g clip-path="url(#id4)"><path fill="rgb(100%, 100%, 100%)" d="M 34.386719 5.273438 C 34.3125 5.503906 34.269531 5.632812 34.230469 5.765625 C 33.910156 6.648438 34.109375 7.640625 34.746094 8.328125 C 35.042969 8.644531 35.34375 8.984375 35.601562 9.347656 C 36.292969 10.183594 36.199219 11.417969 35.398438 12.144531 C 35.136719 12.414062 34.828125 12.632812 34.496094 12.800781 C 34.671875 12.539062 34.863281 12.28125 35.03125 12.007812 C 35.640625 11.027344 35.578125 10.390625 34.839844 9.515625 C 34.492188 9.136719 34.179688 8.730469 33.910156 8.292969 C 33.339844 7.296875 33.542969 6.042969 34.386719 5.273438 " fill-opacity="1" fill-rule="nonzero"/></g><path fill="rgb(100%, 100%, 100%)" d="M 16.628906 28.972656 C 16.59375 29.722656 16.597656 30.472656 16.640625 31.226562 C 16.757812 32.183594 17.292969 33.039062 18.101562 33.558594 C 18.351562 33.675781 18.453125 33.976562 18.332031 34.230469 C 18.320312 34.261719 18.300781 34.289062 18.28125 34.3125 C 18.136719 34.554688 17.824219 34.628906 17.585938 34.480469 C 17.5625 34.464844 17.539062 34.449219 17.519531 34.429688 C 17.457031 34.394531 17.402344 34.351562 17.347656 34.308594 C 16.222656 33.480469 15.554688 32.160156 15.550781 30.75 C 15.519531 29.5 15.550781 28.238281 15.550781 26.984375 C 15.550781 26.570312 15.761719 26.324219 16.082031 26.328125 C 16.402344 26.332031 16.558594 26.570312 16.574219 27.003906 C 16.574219 27.660156 16.574219 28.316406 16.574219 28.972656 L 16.628906 28.972656 " fill-opacity="1" fill-rule="nonzero"/><g fill="rgb(100%, 100%, 100%)" fill-opacity="1"><g transform="translate(-0.491458, 7.018025)"><g><path d="M 5.375 -3.125 L 5.359375 -5.203125 L 4.8125 -5.53125 L 4.8125 -5.6875 L 7.171875 -5.6875 L 7.171875 -5.53125 L 6.640625 -5.203125 L 6.640625 -0.46875 L 7.171875 -0.15625 L 7.171875 0 L 4.8125 0 L 4.8125 -0.15625 L 5.359375 -0.46875 L 5.375 -2.71875 L 2.59375 -2.71875 L 2.59375 -0.46875 L 3.140625 -0.15625 L 3.140625 0 L 0.796875 0 L 0.796875 -0.15625 L 1.34375 -0.46875 L 1.34375 -5.21875 L 0.796875 -5.546875 L 0.796875 -5.6875 L 3.140625 -5.6875 L 3.140625 -5.53125 L 2.59375 -5.21875 L 2.59375 -3.125 Z M 5.375 -3.125 "/></g></g></g><g fill="rgb(100%, 100%, 100%)" fill-opacity="1"><g transform="translate(6.354499, 7.018025)"><g><path d="M 0.9375 -2.84375 C 0.9375 -3.351562 1 -3.796875 1.125 -4.171875 C 1.257812 -4.546875 1.453125 -4.851562 1.703125 -5.09375 C 1.953125 -5.332031 2.257812 -5.507812 2.625 -5.625 C 3 -5.75 3.421875 -5.8125 3.890625 -5.8125 C 4.316406 -5.8125 4.710938 -5.753906 5.078125 -5.640625 C 5.441406 -5.523438 5.738281 -5.34375 5.96875 -5.09375 C 6.238281 -4.820312 6.4375 -4.5 6.5625 -4.125 C 6.695312 -3.757812 6.765625 -3.332031 6.765625 -2.84375 C 6.765625 -2.351562 6.695312 -1.921875 6.5625 -1.546875 C 6.4375 -1.171875 6.238281 -0.84375 5.96875 -0.5625 C 5.738281 -0.320312 5.441406 -0.140625 5.078125 -0.015625 C 4.710938 0.0976562 4.316406 0.15625 3.890625 0.15625 C 3.429688 0.15625 3.019531 0.0976562 2.65625 -0.015625 C 2.289062 -0.140625 1.976562 -0.320312 1.71875 -0.5625 C 1.46875 -0.8125 1.273438 -1.125 1.140625 -1.5 C 1.003906 -1.875 0.9375 -2.320312 0.9375 -2.84375 Z M 5.40625 -2.828125 C 5.40625 -3.296875 5.359375 -3.695312 5.265625 -4.03125 C 5.171875 -4.363281 5.046875 -4.632812 4.890625 -4.84375 C 4.742188 -5.0625 4.570312 -5.222656 4.375 -5.328125 C 4.1875 -5.429688 4 -5.484375 3.8125 -5.484375 C 3.632812 -5.484375 3.457031 -5.441406 3.28125 -5.359375 C 3.113281 -5.285156 2.957031 -5.144531 2.8125 -4.9375 C 2.664062 -4.738281 2.546875 -4.46875 2.453125 -4.125 C 2.367188 -3.78125 2.328125 -3.347656 2.328125 -2.828125 C 2.328125 -2.304688 2.378906 -1.875 2.484375 -1.53125 C 2.585938 -1.195312 2.71875 -0.925781 2.875 -0.71875 C 3.039062 -0.507812 3.222656 -0.363281 3.421875 -0.28125 C 3.617188 -0.195312 3.816406 -0.15625 4.015625 -0.15625 C 4.179688 -0.15625 4.347656 -0.207031 4.515625 -0.3125 C 4.679688 -0.414062 4.832031 -0.578125 4.96875 -0.796875 C 5.101562 -1.015625 5.207031 -1.289062 5.28125 -1.625 C 5.363281 -1.96875 5.40625 -2.367188 5.40625 -2.828125 Z M 5.40625 -2.828125 "/></g></g></g><g fill="rgb(100%, 100%, 100%)" fill-opacity="1"><g transform="translate(12.960099, 7.018025)"><g><path d="M 7.84375 -0.46875 L 8.390625 -0.15625 L 8.390625 0.015625 L 6.046875 0.015625 L 6.046875 -0.140625 L 6.578125 -0.46875 L 6.578125 -4.46875 C 6.578125 -4.46875 6.546875 -4.398438 6.484375 -4.265625 C 6.429688 -4.140625 6.359375 -3.972656 6.265625 -3.765625 C 6.179688 -3.554688 6.082031 -3.316406 5.96875 -3.046875 C 5.851562 -2.785156 5.734375 -2.515625 5.609375 -2.234375 C 5.492188 -1.960938 5.378906 -1.691406 5.265625 -1.421875 C 5.160156 -1.160156 5.0625 -0.925781 4.96875 -0.71875 C 4.882812 -0.519531 4.816406 -0.359375 4.765625 -0.234375 C 4.710938 -0.109375 4.6875 -0.046875 4.6875 -0.046875 L 3.90625 -0.046875 L 2.046875 -4.671875 L 2.046875 -0.453125 L 2.6875 -0.140625 L 2.6875 0.015625 L 1 0.015625 L 1 -0.140625 L 1.625 -0.453125 L 1.625 -5.234375 L 1.15625 -5.5 L 1.15625 -5.6875 L 2.859375 -5.6875 L 4.640625 -1.265625 L 5.609375 -3.46875 C 5.722656 -3.75 5.835938 -4.019531 5.953125 -4.28125 C 6.066406 -4.550781 6.171875 -4.789062 6.265625 -5 C 6.359375 -5.207031 6.429688 -5.375 6.484375 -5.5 C 6.546875 -5.625 6.578125 -5.6875 6.578125 -5.6875 L 8.390625 -5.6875 L 8.390625 -5.53125 L 7.84375 -5.21875 Z M 7.84375 -0.46875 "/></g></g></g><g fill="rgb(100%, 100%, 100%)" fill-opacity="1"><g transform="translate(21.168126, 7.018025)"><g><path d="M 0.890625 0.015625 L 0.890625 -0.125 L 1.421875 -0.453125 L 1.421875 -5.234375 L 0.890625 -5.5625 L 0.890625 -5.6875 L 5.734375 -5.6875 L 5.90625 -4.546875 L 5.28125 -4.546875 L 4.734375 -5.375 C 4.097656 -5.375 3.609375 -5.375 3.265625 -5.375 C 2.921875 -5.375 2.75 -5.367188 2.75 -5.359375 L 2.75 -3.09375 L 4.734375 -3.09375 L 4.484375 -2.6875 L 2.75 -2.6875 L 2.75 -0.34375 L 4.734375 -0.34375 L 5.265625 -1.109375 L 5.90625 -1.109375 L 5.734375 0 Z M 0.890625 0.015625 "/></g></g></g><g fill="rgb(100%, 100%, 100%)" fill-opacity="1"><g transform="translate(-0.410316, 13.694794)"><g><path d="M 7.84375 -0.46875 L 8.390625 -0.15625 L 8.390625 0.015625 L 6.046875 0.015625 L 6.046875 -0.140625 L 6.578125 -0.46875 L 6.578125 -4.46875 C 6.578125 -4.46875 6.546875 -4.398438 6.484375 -4.265625 C 6.429688 -4.140625 6.359375 -3.972656 6.265625 -3.765625 C 6.179688 -3.554688 6.082031 -3.316406 5.96875 -3.046875 C 5.851562 -2.785156 5.734375 -2.515625 5.609375 -2.234375 C 5.492188 -1.960938 5.378906 -1.691406 5.265625 -1.421875 C 5.160156 -1.160156 5.0625 -0.925781 4.96875 -0.71875 C 4.882812 -0.519531 4.816406 -0.359375 4.765625 -0.234375 C 4.710938 -0.109375 4.6875 -0.046875 4.6875 -0.046875 L 3.90625 -0.046875 L 2.046875 -4.671875 L 2.046875 -0.453125 L 2.6875 -0.140625 L 2.6875 0.015625 L 1 0.015625 L 1 -0.140625 L 1.625 -0.453125 L 1.625 -5.234375 L 1.15625 -5.5 L 1.15625 -5.6875 L 2.859375 -5.6875 L 4.640625 -1.265625 L 5.609375 -3.46875 C 5.722656 -3.75 5.835938 -4.019531 5.953125 -4.28125 C 6.066406 -4.550781 6.171875 -4.789062 6.265625 -5 C 6.359375 -5.207031 6.429688 -5.375 6.484375 -5.5 C 6.546875 -5.625 6.578125 -5.6875 6.578125 -5.6875 L 8.390625 -5.6875 L 8.390625 -5.53125 L 7.84375 -5.21875 Z M 7.84375 -0.46875 "/></g></g></g><g fill="rgb(100%, 100%, 100%)" fill-opacity="1"><g transform="translate(7.797711, 13.694794)"><g><path d="M 4.125 -2.515625 L 3.15625 -4.859375 L 2.1875 -2.515625 Z M 2.953125 -5.328125 L 2.796875 -5.6875 L 4.09375 -5.6875 L 6.28125 -0.390625 L 6.6875 -0.140625 L 6.6875 -0.015625 L 4.59375 -0.015625 L 4.59375 -0.140625 L 4.96875 -0.390625 L 4.25 -2.109375 L 2.046875 -2.109375 L 1.3125 -0.390625 L 1.6875 -0.140625 L 1.6875 -0.015625 L 0.453125 -0.015625 L 0.453125 -0.140625 L 0.84375 -0.390625 Z M 2.953125 -5.328125 "/></g></g></g><g fill="rgb(100%, 100%, 100%)" fill-opacity="1"><g transform="translate(14.59026, 13.694794)"><g><path d="M 5.25 -2.90625 C 5.25 -3.320312 5.191406 -3.679688 5.078125 -3.984375 C 4.972656 -4.285156 4.828125 -4.535156 4.640625 -4.734375 C 4.453125 -4.929688 4.234375 -5.082031 3.984375 -5.1875 C 3.734375 -5.300781 3.457031 -5.367188 3.15625 -5.390625 L 2.703125 -5.390625 C 2.703125 -5.046875 2.695312 -4.648438 2.6875 -4.203125 C 2.6875 -3.765625 2.6875 -3.316406 2.6875 -2.859375 C 2.6875 -2.410156 2.6875 -1.96875 2.6875 -1.53125 C 2.6875 -1.09375 2.6875 -0.695312 2.6875 -0.34375 L 3.578125 -0.34375 C 4.171875 -0.34375 4.597656 -0.554688 4.859375 -0.984375 C 5.117188 -1.410156 5.25 -2.050781 5.25 -2.90625 Z M 3.421875 -5.6875 C 3.898438 -5.6875 4.332031 -5.632812 4.71875 -5.53125 C 5.113281 -5.4375 5.445312 -5.273438 5.71875 -5.046875 C 6 -4.828125 6.210938 -4.539062 6.359375 -4.1875 C 6.515625 -3.832031 6.59375 -3.398438 6.59375 -2.890625 C 6.59375 -1.953125 6.34375 -1.234375 5.84375 -0.734375 C 5.351562 -0.242188 4.601562 0 3.59375 0 C 3.414062 0 3.222656 0 3.015625 0 C 2.804688 0 2.613281 -0.00390625 2.4375 -0.015625 C 2.320312 -0.015625 2.179688 -0.015625 2.015625 -0.015625 C 1.847656 -0.015625 1.726562 -0.015625 1.65625 -0.015625 L 0.875 -0.015625 L 0.875 -0.15625 L 1.40625 -0.46875 L 1.40625 -5.25 L 0.875 -5.578125 L 0.875 -5.6875 Z M 3.421875 -5.6875 "/></g></g></g><g fill="rgb(100%, 100%, 100%)" fill-opacity="1"><g transform="translate(21.080124, 13.694794)"><g><path d="M 0.890625 0.015625 L 0.890625 -0.125 L 1.421875 -0.453125 L 1.421875 -5.234375 L 0.890625 -5.5625 L 0.890625 -5.6875 L 5.734375 -5.6875 L 5.90625 -4.546875 L 5.28125 -4.546875 L 4.734375 -5.375 C 4.097656 -5.375 3.609375 -5.375 3.265625 -5.375 C 2.921875 -5.375 2.75 -5.367188 2.75 -5.359375 L 2.75 -3.09375 L 4.734375 -3.09375 L 4.484375 -2.6875 L 2.75 -2.6875 L 2.75 -0.34375 L 4.734375 -0.34375 L 5.265625 -1.109375 L 5.90625 -1.109375 L 5.734375 0 Z M 0.890625 0.015625 "/></g></g></g></svg>